<svg width="24" height="24" viewBox="0 0 24 24" fill="none" xmlns="http://www.w3.org/2000/svg">
<g clip-path="url(#clip0_116_687)">
<path d="M20.7999 8.93332C21.0714 9.70785 21.2395 10.5148 21.2999 11.3333H11.6599L5.53325 18.7133C4.01532 17.234 3.04611 15.2821 2.78508 13.1786C2.52405 11.0752 2.98674 8.94559 4.09703 7.14011C5.20732 5.33462 6.89909 3.96082 8.894 3.24471C10.8889 2.52859 13.0682 2.51282 15.0732 3.19998C15.1435 2.75775 15.2735 2.32712 15.4599 1.91998C13.1708 1.12846 10.6809 1.1365 8.39691 1.94281C6.11293 2.74912 4.16984 4.30604 2.88498 6.35928C1.60012 8.41253 1.04943 10.8408 1.32284 13.2474C1.59626 15.6541 2.67762 17.8969 4.39032 19.6096C6.10302 21.3223 8.34585 22.4036 10.7525 22.6771C13.1591 22.9505 15.5874 22.3998 17.6406 21.1149C19.6939 19.8301 21.2508 17.887 22.0571 15.603C22.8634 13.319 22.8714 10.8291 22.0799 8.53998C21.6731 8.72866 21.2425 8.86099 20.7999 8.93332ZM11.9999 21.3333C10.0457 21.3328 8.1416 20.7144 6.55991 19.5667L12.2866 12.6667H21.2999C21.1315 15.0189 20.0788 17.2203 18.3535 18.8281C16.6282 20.4358 14.3582 21.3309 11.9999 21.3333Z" fill="#A39FA9"/>
<path d="M19.9998 7.33335C21.8408 7.33335 23.3332 5.84097 23.3332 4.00002C23.3332 2.15907 21.8408 0.666687 19.9998 0.666687C18.1589 0.666687 16.6665 2.15907 16.6665 4.00002C16.6665 5.84097 18.1589 7.33335 19.9998 7.33335Z" fill="#808080"/>
</g>
<defs>
<clipPath id="clip0_116_687">
<rect width="24" height="24" fill="white"/>
</clipPath>
</defs>
</svg>