<svg width="19" height="18" viewBox="0 0 19 18" fill="none" xmlns="http://www.w3.org/2000/svg">
<path d="M17 1.5V4.5H2V1.5H17ZM17 0H2C1.60218 0 1.22064 0.158035 0.93934 0.43934C0.658035 0.720644 0.5 1.10218 0.5 1.5V4.5C0.5 4.89782 0.658035 5.27936 0.93934 5.56066C1.22064 5.84196 1.60218 6 2 6H17C17.3978 6 17.7794 5.84196 18.0607 5.56066C18.342 5.27936 18.5 4.89782 18.5 4.5V1.5C18.5 1.10218 18.342 0.720644 18.0607 0.43934C17.7794 0.158035 17.3978 0 17 0ZM5 9V16.5H2V9H5ZM5 7.5H2C1.60218 7.5 1.22064 7.65804 0.93934 7.93934C0.658035 8.22064 0.5 8.60217 0.5 9V16.5C0.5 16.8978 0.658035 17.2794 0.93934 17.5607C1.22064 17.842 1.60218 18 2 18H5C5.39782 18 5.77936 17.842 6.06066 17.5607C6.34196 17.2794 6.5 16.8978 6.5 16.5V9C6.5 8.60217 6.34196 8.22064 6.06066 7.93934C5.77936 7.65804 5.39782 7.5 5 7.5ZM17 9V16.5H9.5V9H17ZM17 7.5H9.5C9.10217 7.5 8.72064 7.65804 8.43934 7.93934C8.15804 8.22064 8 8.60217 8 9V16.5C8 16.8978 8.15804 17.2794 8.43934 17.5607C8.72064 17.842 9.10217 18 9.5 18H17C17.3978 18 17.7794 17.842 18.0607 17.5607C18.342 17.2794 18.5 16.8978 18.5 16.5V9C18.5 8.60217 18.342 8.22064 18.0607 7.93934C17.7794 7.65804 17.3978 7.5 17 7.5Z" fill="#A39FA9"/>
</svg>
