<svg width="25" height="25" viewBox="0 0 25 25" fill="none" xmlns="http://www.w3.org/2000/svg">
<g clip-path="url(#clip0_116_694)">
<path d="M12.5 17.1875C11.2568 17.1875 10.0645 16.6936 9.18544 15.8146C8.30636 14.9355 7.8125 13.7432 7.8125 12.5C7.8125 11.2568 8.30636 10.0645 9.18544 9.18544C10.0645 8.30636 11.2568 7.8125 12.5 7.8125C13.7432 7.8125 14.9355 8.30636 15.8146 9.18544C16.6936 10.0645 17.1875 11.2568 17.1875 12.5C17.1875 13.7432 16.6936 14.9355 15.8146 15.8146C14.9355 16.6936 13.7432 17.1875 12.5 17.1875ZM12.5 18.75C14.1576 18.75 15.7473 18.0915 16.9194 16.9194C18.0915 15.7473 18.75 14.1576 18.75 12.5C18.75 10.8424 18.0915 9.25268 16.9194 8.08058C15.7473 6.90848 14.1576 6.25 12.5 6.25C10.8424 6.25 9.25268 6.90848 8.08058 8.08058C6.90848 9.25268 6.25 10.8424 6.25 12.5C6.25 14.1576 6.90848 15.7473 8.08058 16.9194C9.25268 18.0915 10.8424 18.75 12.5 18.75ZM12.5 0C12.7072 0 12.9059 0.08231 13.0524 0.228823C13.1989 0.375336 13.2812 0.57405 13.2812 0.78125V3.90625C13.2812 4.11345 13.1989 4.31216 13.0524 4.45868C12.9059 4.60519 12.7072 4.6875 12.5 4.6875C12.2928 4.6875 12.0941 4.60519 11.9476 4.45868C11.8011 4.31216 11.7188 4.11345 11.7188 3.90625V0.78125C11.7188 0.57405 11.8011 0.375336 11.9476 0.228823C12.0941 0.08231 12.2928 0 12.5 0ZM12.5 20.3125C12.7072 20.3125 12.9059 20.3948 13.0524 20.5413C13.1989 20.6878 13.2812 20.8865 13.2812 21.0938V24.2188C13.2812 24.426 13.1989 24.6247 13.0524 24.7712C12.9059 24.9177 12.7072 25 12.5 25C12.2928 25 12.0941 24.9177 11.9476 24.7712C11.8011 24.6247 11.7188 24.426 11.7188 24.2188V21.0938C11.7188 20.8865 11.8011 20.6878 11.9476 20.5413C12.0941 20.3948 12.2928 20.3125 12.5 20.3125ZM25 12.5C25 12.7072 24.9177 12.9059 24.7712 13.0524C24.6247 13.1989 24.426 13.2812 24.2188 13.2812H21.0938C20.8865 13.2812 20.6878 13.1989 20.5413 13.0524C20.3948 12.9059 20.3125 12.7072 20.3125 12.5C20.3125 12.2928 20.3948 12.0941 20.5413 11.9476C20.6878 11.8011 20.8865 11.7188 21.0938 11.7188H24.2188C24.426 11.7188 24.6247 11.8011 24.7712 11.9476C24.9177 12.0941 25 12.2928 25 12.5ZM4.6875 12.5C4.6875 12.7072 4.60519 12.9059 4.45868 13.0524C4.31216 13.1989 4.11345 13.2812 3.90625 13.2812H0.78125C0.57405 13.2812 0.375336 13.1989 0.228823 13.0524C0.08231 12.9059 0 12.7072 0 12.5C0 12.2928 0.08231 12.0941 0.228823 11.9476C0.375336 11.8011 0.57405 11.7188 0.78125 11.7188H3.90625C4.11345 11.7188 4.31216 11.8011 4.45868 11.9476C4.60519 12.0941 4.6875 12.2928 4.6875 12.5ZM21.3391 3.66094C21.4855 3.80744 21.5678 4.00612 21.5678 4.21328C21.5678 4.42044 21.4855 4.61912 21.3391 4.76562L19.1297 6.97656C19.0571 7.0491 18.9708 7.10661 18.876 7.14583C18.7811 7.18505 18.6794 7.20519 18.5768 7.20512C18.3695 7.20498 18.1707 7.12248 18.0242 6.97578C17.9517 6.90314 17.8942 6.81693 17.8549 6.72206C17.8157 6.6272 17.7956 6.52554 17.7957 6.42288C17.7958 6.21557 17.8783 6.0168 18.025 5.87031L20.2344 3.66094C20.3809 3.51448 20.5796 3.4322 20.7867 3.4322C20.9939 3.4322 21.1926 3.51448 21.3391 3.66094ZM6.975 18.025C7.12146 18.1715 7.20374 18.3702 7.20374 18.5773C7.20374 18.7845 7.12146 18.9832 6.975 19.1297L4.76562 21.3391C4.61828 21.4814 4.42093 21.5601 4.21609 21.5583C4.01125 21.5566 3.8153 21.4744 3.67045 21.3295C3.5256 21.1847 3.44344 20.9887 3.44166 20.7839C3.43988 20.5791 3.51863 20.3817 3.66094 20.2344L5.87031 18.025C6.01682 17.8785 6.2155 17.7963 6.42266 17.7963C6.62982 17.7963 6.82849 17.8785 6.975 18.025ZM21.3391 21.3391C21.1926 21.4855 20.9939 21.5678 20.7867 21.5678C20.5796 21.5678 20.3809 21.4855 20.2344 21.3391L18.025 19.1297C17.8827 18.9823 17.8039 18.785 17.8057 18.5802C17.8075 18.3753 17.8897 18.1794 18.0345 18.0345C18.1794 17.8897 18.3753 17.8075 18.5802 17.8057C18.785 17.8039 18.9823 17.8827 19.1297 18.025L21.3391 20.2344C21.4855 20.3809 21.5678 20.5796 21.5678 20.7867C21.5678 20.9939 21.4855 21.1926 21.3391 21.3391ZM6.975 6.97656C6.82849 7.12302 6.62982 7.2053 6.42266 7.2053C6.2155 7.2053 6.01682 7.12302 5.87031 6.97656L3.66094 4.76562C3.58632 4.69356 3.5268 4.60735 3.48586 4.51203C3.44491 4.41672 3.42336 4.3142 3.42246 4.21047C3.42156 4.10674 3.44133 4.00386 3.48061 3.90785C3.51989 3.81184 3.5779 3.72461 3.65125 3.65125C3.72461 3.5779 3.81184 3.51989 3.90785 3.48061C4.00386 3.44133 4.10674 3.42156 4.21047 3.42246C4.3142 3.42336 4.41672 3.44491 4.51203 3.48586C4.60735 3.5268 4.69356 3.58632 4.76562 3.66094L6.975 5.87031C7.04776 5.94288 7.10548 6.0291 7.14486 6.12401C7.18425 6.21892 7.20452 6.32068 7.20452 6.42344C7.20452 6.5262 7.18425 6.62795 7.14486 6.72287C7.10548 6.81778 7.04776 6.90399 6.975 6.97656Z" fill="#A39FA9"/>
</g>
<defs>
<clipPath id="clip0_116_694">
<rect width="25" height="25" fill="#A39FA9"/>
</clipPath>
</defs>
</svg>