<svg width="21" height="21" viewBox="0 0 21 21" fill="none" xmlns="http://www.w3.org/2000/svg">
<path d="M11.9152 12.078V15.5853C11.9151 15.6557 11.9289 15.7254 11.9558 15.7904C11.9827 15.8555 12.0222 15.9146 12.0719 15.9644C12.1216 16.0142 12.1807 16.0537 12.2457 16.0806C12.3107 16.1076 12.3804 16.1214 12.4508 16.1214H14.872C14.9424 16.1215 15.0122 16.1077 15.0773 16.0807C15.1423 16.0538 15.2015 16.0143 15.2513 15.9645C15.3011 15.9148 15.3405 15.8556 15.3675 15.7906C15.3944 15.7255 15.4082 15.6557 15.4081 15.5853V11.2127H16.1106C16.2756 11.2127 16.4367 11.162 16.572 11.0676C16.7073 10.9731 16.8104 10.8394 16.8674 10.6846C16.9244 10.5297 16.9325 10.3611 16.8906 10.2014C16.8488 10.0418 16.759 9.89885 16.6334 9.79185L11.1398 5.11374C10.9614 4.96154 10.7345 4.87793 10.5 4.87793C10.2654 4.87793 10.0386 4.96154 9.86013 5.11374L4.36656 9.79185C4.24064 9.89872 4.15058 10.0417 4.10856 10.2014C4.06654 10.3611 4.07459 10.5299 4.13161 10.6849C4.18864 10.8399 4.29189 10.9736 4.42741 11.0681C4.56292 11.1625 4.72416 11.213 4.88932 11.2127H5.5918V15.5858C5.59194 15.7279 5.64848 15.8642 5.74901 15.9646C5.84953 16.065 5.98582 16.1214 6.12791 16.1214H8.54861C8.69066 16.1214 8.82689 16.065 8.92734 15.9645C9.02778 15.8641 9.08421 15.7279 9.08421 15.5858V12.0785L11.9152 12.078Z" stroke="url(#paint0_linear_489_1795)" stroke-linecap="round" stroke-linejoin="round"/>
<path d="M12.7697 1H2.02703C1.75464 1 1.49341 1.1082 1.30081 1.30081C1.1082 1.49341 1 1.75464 1 2.02703V18.973C1 19.2454 1.1082 19.5066 1.30081 19.6992C1.49341 19.8918 1.75464 20 2.02703 20H18.973C19.2454 20 19.5066 19.8918 19.6992 19.6992C19.8918 19.5066 20 19.2454 20 18.973V8.23027" stroke="url(#paint1_linear_489_1795)" stroke-linecap="round" stroke-linejoin="round"/>
<defs>
<linearGradient id="paint0_linear_489_1795" x1="10.4995" y1="4.87793" x2="10.4995" y2="16.1214" gradientUnits="userSpaceOnUse">
<stop offset="0.325" stop-color="#8A46C9"/>
<stop offset="1" stop-color="#0005FF"/>
</linearGradient>
<linearGradient id="paint1_linear_489_1795" x1="10.5" y1="1" x2="10.5" y2="20" gradientUnits="userSpaceOnUse">
<stop offset="0.325" stop-color="#8A46C9"/>
<stop offset="1" stop-color="#0005FF"/>
</linearGradient>
</defs>
</svg>
