<svg width="24" height="24" viewBox="0 0 24 24" fill="none" xmlns="http://www.w3.org/2000/svg">
<g clip-path="url(#clip0_193_2240)">
<path d="M20.7999 8.93344C21.0714 9.70798 21.2395 10.5149 21.2999 11.3334H11.6599L5.53325 18.7134C4.01532 17.2341 3.04611 15.2822 2.78508 13.1788C2.52405 11.0753 2.98674 8.94571 4.09703 7.14023C5.20732 5.33475 6.89909 3.96094 8.894 3.24483C10.8889 2.52872 13.0682 2.51294 15.0732 3.20011C15.1435 2.75787 15.2735 2.32725 15.4599 1.92011C13.1708 1.12858 10.6809 1.13663 8.39691 1.94293C6.11293 2.74924 4.16984 4.30616 2.88498 6.3594C1.60012 8.41265 1.04943 10.8409 1.32284 13.2475C1.59626 15.6542 2.67762 17.897 4.39032 19.6097C6.10302 21.3224 8.34585 22.4038 10.7525 22.6772C13.1591 22.9506 15.5874 22.3999 17.6406 21.115C19.6939 19.8302 21.2508 17.8871 22.0571 15.6031C22.8634 13.3191 22.8714 10.8292 22.0799 8.54011C21.6731 8.72878 21.2425 8.86111 20.7999 8.93344ZM11.9999 21.3334C10.0457 21.3329 8.1416 20.7146 6.55991 19.5668L12.2866 12.6668H21.2999C21.1315 15.0191 20.0788 17.2204 18.3535 18.8282C16.6282 20.436 14.3582 21.331 11.9999 21.3334Z" fill="url(#paint0_linear_193_2240)"/>
<path d="M19.9998 7.33341C21.8408 7.33341 23.3332 5.84103 23.3332 4.00008C23.3332 2.15913 21.8408 0.666748 19.9998 0.666748C18.1589 0.666748 16.6665 2.15913 16.6665 4.00008C16.6665 5.84103 18.1589 7.33341 19.9998 7.33341Z" fill="url(#paint1_linear_193_2240)"/>
</g>
<defs>
<linearGradient id="paint0_linear_193_2240" x1="11.9611" y1="1.33228" x2="11.9611" y2="22.7456" gradientUnits="userSpaceOnUse">
<stop offset="0.325" stop-color="#8A46C9"/>
<stop offset="1" stop-color="#0005FF"/>
</linearGradient>
<linearGradient id="paint1_linear_193_2240" x1="19.9998" y1="0.666748" x2="19.9998" y2="7.33341" gradientUnits="userSpaceOnUse">
<stop offset="0.325" stop-color="#8A46C9"/>
<stop offset="1" stop-color="#0005FF"/>
</linearGradient>
<clipPath id="clip0_193_2240">
<rect width="24" height="24" fill="white"/>
</clipPath>
</defs>
</svg>
