<svg width="25" height="24" viewBox="0 0 25 24" fill="none" xmlns="http://www.w3.org/2000/svg">
<path d="M20 4.5V7.5H5V4.5H20ZM20 3H5C4.60218 3 4.22064 3.15804 3.93934 3.43934C3.65804 3.72064 3.5 4.10218 3.5 4.5V7.5C3.5 7.89782 3.65804 8.27936 3.93934 8.56066C4.22064 8.84196 4.60218 9 5 9H20C20.3978 9 20.7794 8.84196 21.0607 8.56066C21.342 8.27936 21.5 7.89782 21.5 7.5V4.5C21.5 4.10218 21.342 3.72064 21.0607 3.43934C20.7794 3.15804 20.3978 3 20 3ZM8 12V19.5H5V12H8ZM8 10.5H5C4.60218 10.5 4.22064 10.658 3.93934 10.9393C3.65804 11.2206 3.5 11.6022 3.5 12V19.5C3.5 19.8978 3.65804 20.2794 3.93934 20.5607C4.22064 20.842 4.60218 21 5 21H8C8.39782 21 8.77936 20.842 9.06066 20.5607C9.34196 20.2794 9.5 19.8978 9.5 19.5V12C9.5 11.6022 9.34196 11.2206 9.06066 10.9393C8.77936 10.658 8.39782 10.5 8 10.5ZM20 12V19.5H12.5V12H20ZM20 10.5H12.5C12.1022 10.5 11.7206 10.658 11.4393 10.9393C11.158 11.2206 11 11.6022 11 12V19.5C11 19.8978 11.158 20.2794 11.4393 20.5607C11.7206 20.842 12.1022 21 12.5 21H20C20.3978 21 20.7794 20.842 21.0607 20.5607C21.342 20.2794 21.5 19.8978 21.5 19.5V12C21.5 11.6022 21.342 11.2206 21.0607 10.9393C20.7794 10.658 20.3978 10.5 20 10.5Z" fill="url(#paint0_linear_193_2232)"/>
<defs>
<linearGradient id="paint0_linear_193_2232" x1="12.5" y1="3" x2="12.5" y2="21" gradientUnits="userSpaceOnUse">
<stop offset="0.325" stop-color="#8A46C9"/>
<stop offset="1" stop-color="#0005FF"/>
</linearGradient>
</defs>
</svg>
