<svg width="25" height="25" viewBox="0 0 25 25" fill="none" xmlns="http://www.w3.org/2000/svg">
<path d="M12.3587 18.2388C10.7587 18.1554 9.40869 17.5388 8.30869 16.3888C7.20869 15.2388 6.65869 13.8554 6.65869 12.2388C6.65869 10.5721 7.24203 9.15544 8.40869 7.98877C9.57536 6.8221 10.992 6.23877 12.6587 6.23877C14.2754 6.23877 15.6587 6.78877 16.8087 7.88877C17.9587 8.98877 18.5754 10.3388 18.6587 11.9388L16.5587 11.3138C16.342 10.4138 15.8754 9.67644 15.1587 9.10177C14.442 8.5271 13.6087 8.23944 12.6587 8.23877C11.5587 8.23877 10.617 8.63044 9.83369 9.41377C9.05036 10.1971 8.65869 11.1388 8.65869 12.2388C8.65869 13.1888 8.94636 14.0221 9.52169 14.7388C10.097 15.4554 10.8344 15.9221 11.7337 16.1388L12.3587 18.2388ZM13.5587 22.1888C13.4087 22.2221 13.2587 22.2388 13.1087 22.2388H12.6587C11.2754 22.2388 9.97536 21.9761 8.75869 21.4508C7.54203 20.9254 6.48369 20.2131 5.58369 19.3138C4.68369 18.4144 3.97136 17.3561 3.44669 16.1388C2.92203 14.9214 2.65936 13.6214 2.65869 12.2388C2.65803 10.8561 2.92069 9.5561 3.44669 8.33877C3.97269 7.12144 4.68503 6.0631 5.58369 5.16377C6.48236 4.26444 7.54069 3.5521 8.75869 3.02677C9.97669 2.50144 11.2767 2.23877 12.6587 2.23877C14.0407 2.23877 15.3407 2.50144 16.5587 3.02677C17.7767 3.5521 18.835 4.26444 19.7337 5.16377C20.6324 6.0631 21.345 7.12144 21.8717 8.33877C22.3984 9.5561 22.6607 10.8561 22.6587 12.2388V12.6888C22.6587 12.8388 22.642 12.9888 22.6087 13.1388L20.6587 12.5388V12.2388C20.6587 10.0054 19.8837 8.11377 18.3337 6.56377C16.7837 5.01377 14.892 4.23877 12.6587 4.23877C10.4254 4.23877 8.53369 5.01377 6.98369 6.56377C5.43369 8.11377 4.65869 10.0054 4.65869 12.2388C4.65869 14.4721 5.43369 16.3638 6.98369 17.9138C8.53369 19.4638 10.4254 20.2388 12.6587 20.2388H12.9587L13.5587 22.1888ZM21.1837 22.7388L16.9087 18.4638L15.6587 22.2388L12.6587 12.2388L22.6587 15.2388L18.8837 16.4888L23.1587 20.7638L21.1837 22.7388Z" fill="#808080"/>
</svg>
