<svg width="26" height="25" viewBox="0 0 26 25" fill="none" xmlns="http://www.w3.org/2000/svg">
<path d="M21.3855 14.1387L16.4607 10.6387V3.33875C16.4607 2.83875 16.0416 2.33875 15.4129 2.33875H5.9824C5.45848 2.33875 4.93457 2.73875 4.93457 3.33875V13.2387C4.93457 13.7387 5.3537 14.2387 5.9824 14.2387H9.96415V19.6387C9.96415 19.9387 10.1737 20.1387 10.3833 20.2387C10.6976 20.3387 11.012 20.2387 11.1168 20.0387L13.422 17.1387L15.832 21.7387C16.0416 22.0387 16.4607 22.2387 16.775 22.0387L19.3946 20.8387C19.6042 20.7387 19.709 20.6387 19.709 20.4387V19.9387L17.1942 15.2387H20.9664C21.2807 15.2387 21.4903 15.0387 21.5951 14.7387C21.6998 14.5387 21.5951 14.2387 21.3855 14.1387ZM11.012 6.73875C10.8024 6.63875 10.4881 6.53875 10.2785 6.73875C10.0689 6.73875 9.85937 7.03875 9.85937 7.23875V12.7387H6.50631V3.83875H14.8889V9.43875L13.5268 8.53875L11.012 6.73875ZM16.1463 14.0387C15.9368 14.0387 15.7272 14.1387 15.6224 14.3387C15.5176 14.5387 15.5176 14.7387 15.6224 14.9387L18.242 19.9387L16.8798 20.6387L14.2603 15.6387C14.1555 15.4387 13.9459 15.3387 13.7363 15.2387C13.5268 15.2387 13.3172 15.3387 13.1076 15.5387L11.4311 17.7387V8.63874L13.0029 9.73875L19.185 14.1387L16.1463 14.0387Z" fill="url(#paint0_linear_190_1791)"/>
<defs>
<linearGradient id="paint0_linear_190_1791" x1="13.2854" y1="2.33875" x2="13.2854" y2="22.1193" gradientUnits="userSpaceOnUse">
<stop offset="0.325" stop-color="#8A46C9"/>
<stop offset="1" stop-color="#0005FF"/>
</linearGradient>
</defs>
</svg>
