<svg width="27" height="27" viewBox="0 0 27 27" fill="none" xmlns="http://www.w3.org/2000/svg">
<path d="M2.28473 8.25817C2.33348 8.7863 2.78035 9.1763 3.30035 9.1763L3.29223 9.16817H3.3816C3.4791 9.16005 5.16991 8.98942 6.3976 7.41317C7.32385 8.5263 8.5751 9.16817 9.99779 9.16817C11.4205 9.16817 12.7213 8.4938 13.6557 7.34005C14.59 8.4938 15.9152 9.16817 17.3135 9.16817C18.7118 9.16817 19.9867 8.5263 20.9137 7.41317C22.1406 8.98942 23.8395 9.16817 23.9297 9.16817C24.4904 9.2088 24.9697 8.81067 25.0266 8.25817C25.0517 7.99154 24.9714 7.72566 24.8028 7.51757C24.6342 7.30948 24.3908 7.17575 24.1247 7.14505C23.9622 7.1288 22.5233 6.9013 21.9464 5.0163C21.8245 4.60192 21.4427 4.31755 21.012 4.3013C20.5481 4.2688 20.1825 4.54505 20.0281 4.9513C19.5 6.3163 18.4925 7.13692 17.3217 7.13692C16.1517 7.13692 15.1434 6.32442 14.6144 4.9513C14.46 4.5613 14.0863 4.3013 13.6638 4.3013C13.2413 4.3013 12.8675 4.5613 12.7132 4.9513C12.185 6.3163 11.1686 7.13692 10.0059 7.13692C8.84323 7.13692 7.82841 6.32442 7.30029 4.9513C7.22233 4.75541 7.08623 4.5881 6.91032 4.47189C6.73441 4.35569 6.52712 4.29615 6.31635 4.3013C5.8776 4.31755 5.50385 4.61005 5.37385 5.02442C4.78885 6.90942 3.3491 7.13692 3.20285 7.15317C2.64223 7.20192 2.23598 7.69755 2.28473 8.25817ZM3.30035 15.6763C3.04018 15.6758 2.79015 15.5754 2.60196 15.3957C2.41378 15.2161 2.30185 14.971 2.28932 14.7111C2.2768 14.4512 2.36464 14.1965 2.53468 13.9996C2.70471 13.8027 2.94393 13.6787 3.20285 13.6532C3.3491 13.6369 4.78804 13.4094 5.37304 11.5244C5.50304 11.11 5.87679 10.8175 6.31554 10.8013C6.73804 10.7932 7.1451 11.045 7.29948 11.4513C7.8276 12.8244 8.84323 13.6369 10.0059 13.6369C11.1678 13.6369 12.1842 12.8163 12.7132 11.4513C12.8675 11.0613 13.2413 10.8013 13.6638 10.8013C14.0863 10.8013 14.46 11.0613 14.6144 11.4513C15.1425 12.8244 16.1509 13.6369 17.3217 13.6369C18.4925 13.6369 19.4992 12.8163 20.0273 11.4513C20.1817 11.045 20.5481 10.7688 21.0112 10.8013C21.4419 10.8175 21.8237 11.1019 21.9456 11.5163C22.5225 13.4013 23.9614 13.6288 24.1247 13.645C24.6772 13.71 25.0835 14.2057 25.0266 14.7582C24.9998 15.0235 24.8698 15.2676 24.6646 15.4379C24.4594 15.6081 24.1954 15.6909 23.9297 15.6682C23.8404 15.6682 22.1414 15.4894 20.9137 13.9132C19.9875 15.0263 18.7118 15.6682 17.3135 15.6682C15.9152 15.6682 14.59 14.9938 13.6557 13.84C12.7213 14.9938 11.4205 15.6682 9.99779 15.6682C8.5751 15.6682 7.32466 15.0263 6.3976 13.9132C5.17073 15.4894 3.47991 15.66 3.3816 15.6682H3.29223L3.30035 15.6763ZM3.30035 22.1763C3.04018 22.1758 2.79015 22.0754 2.60196 21.8957C2.41378 21.7161 2.30185 21.471 2.28932 21.2111C2.2768 20.9512 2.36464 20.6965 2.53468 20.4996C2.70471 20.3027 2.94393 20.1787 3.20285 20.1532C3.3491 20.1369 4.78804 19.9094 5.37304 18.0244C5.50304 17.61 5.87679 17.3175 6.31554 17.3013C6.73804 17.2932 7.1451 17.545 7.29948 17.9513C7.8276 19.3244 8.84323 20.1369 10.0059 20.1369C11.1678 20.1369 12.1842 19.3163 12.7132 17.9513C12.8675 17.5613 13.2413 17.3013 13.6638 17.3013C14.0863 17.3013 14.46 17.5613 14.6144 17.9513C15.1425 19.3244 16.1509 20.1369 17.3217 20.1369C18.4925 20.1369 19.4992 19.3163 20.0273 17.9513C20.1817 17.545 20.5481 17.2688 21.0112 17.3013C21.4419 17.3175 21.8237 17.6019 21.9456 18.0163C22.5225 19.9013 23.9614 20.1288 24.1247 20.145C24.6772 20.21 25.0835 20.7057 25.0266 21.2582C24.9998 21.5235 24.8698 21.7676 24.6646 21.9379C24.4594 22.1081 24.1954 22.1909 23.9297 22.1682C23.8404 22.1682 22.1414 21.9894 20.9137 20.4132C19.9875 21.5263 18.7118 22.1682 17.3135 22.1682C15.9152 22.1682 14.59 21.4938 13.6557 20.34C12.7213 21.4938 11.4205 22.1682 9.99779 22.1682C8.5751 22.1682 7.32466 21.5263 6.3976 20.4132C5.17073 21.9894 3.47991 22.16 3.3816 22.1682H3.29223L3.30035 22.1763Z" fill="#A39FA9"/>
</svg>
